<svg xmlns="http://www.w3.org/2000/svg" width="400" height="135" viewBox="0 0 400 135" fill="none" role="img" aria-labelledby="desc">
  <title>publisher_consumer_pattern.go Gist Pin</title>
  <desc id="desc">A simple pattern for asynchronous publisher-consumer model in Golang.</desc>
  <rect x="0.5" y="0.5" rx="4.5" height="99%" width="399" fill="#0d1117" stroke="#30363d"  stroke-opacity="1"/>
  <g transform="translate(25, 35)">
    <g transform="translate(0, 0)">
      <svg x="0" y="-13" viewBox="0 0 16 16" version="1.1" width="16" height="16" fill="#58a6ff">
        <path fill-rule="evenodd" d="M1.75 1.5a.25.25 0 00-.25.25v12.5c0 .138.112.25.25.25h12.5a.25.25 0 00.25-.25V1.75a.25.25 0 00-.25-.25H1.75zM0 1.75C0 .784.784 0 1.75 0h12.5C15.216 0 16 .784 16 1.75v12.5A1.75 1.75 0 0114.25 16H1.75A1.75 1.75 0 010 14.25V1.75zm9.22 3.72a.75.75 0 000 1.06L10.69 8 9.22 9.47a.75.75 0 101.06 1.06l2-2a.75.75 0 000-1.06l-2-2a.75.75 0 00-1.06 0zM6.78 6.53a.75.75 0 00-1.06-1.06l-2 2a.75.75 0 000 1.06l2 2a.75.75 0 101.06-1.06L5.31 8l1.47-1.47z"></path>
      </svg>
    </g>
    <g transform="translate(25, 0)">
      <text x="0" y="0" fill="#58a6ff" font-family="'Segoe UI', Ubuntu, Sans-Serif" font-size="18px" font-weight="600">publisher_consumer_pattern.go</text>
    </g>
  </g>
  <g transform="translate(0, 55)">
    <text x="25" y="-5" fill="#c9d1d9" font-family="'Segoe UI', Ubuntu, Sans-Serif" font-size="13px" font-weight="400">
      <tspan dy="1.2em" x="25">A simple pattern for asynchronous publisher-consumer model</tspan><tspan dy="1.2em" x="25">in Golang.</tspan>
    </text>
    <g transform="translate(30, 60)">
      <g transform="translate(0, 0)">
        <circle cx="0" cy="-5" r="6" fill="#00ADD8"/>
        <text x="15" fill="#c9d1d9" font-family="'Segoe UI', Ubuntu, Sans-Serif" font-size="12px" font-weight="400">Go</text>
      </g>
      <g transform="translate(80.93125, 0)">
        <g transform="translate(0, 0)">
          <svg y="-12" viewBox="0 0 16 16" version="1.1" width="16" height="16" fill="#58a6ff">
            <path fill-rule="evenodd" d="M8 .25a.75.75 0 01.673.418l1.882 3.815 4.21.612a.75.75 0 01.416 1.279l-3.046 2.97.719 4.192a.75.75 0 01-1.088.791L8 12.347l-3.766 1.98a.75.75 0 01-1.088-.79l.72-4.194L.818 6.374a.75.75 0 01.416-1.28l4.21-.611L7.327.668A.75.75 0 018 .25zm0 2.445L6.615 5.5a.75.75 0 01-.564.41l-3.097.45 2.24 2.184a.75.75 0 01.216.664l-.528 3.084 2.769-1.456a.75.75 0 01.698 0l2.77 1.456-.53-3.084a.75.75 0 01.216-.664l2.24-2.183-3.096-.45a.75.75 0 01-.564-.41L8 2.694v.001z"/>
          </svg>
        </g>
        <g transform="translate(20, 0)">
          <text fill="#c9d1d9" font-family="'Segoe UI', Ubuntu, Sans-Serif" font-size="12px" font-weight="400">1</text>
        </g>
      </g>
    </g>
  </g>
</svg>
